<svg xmlns="http://www.w3.org/2000/svg" viewBox="0 0 640 512">
  <circle cx="210" cy="140" r="60" fill="#f6c344"/>
  <path d="M208 160c-44.2 0-80 35.8-80 80 0 5.5.6 10.8 1.6 16H544c35.3 0 64 28.7 64 64s-28.7 64-64 64H96c-53 0-96-43-96-96 0-49.3 37.2-89.8 84.9-95.3C101.2 117.9 167.8 64 248 64c64 0 119.6 32.5 151.5 81.1C412 141.6 425.9 140 440 140c64.9 0 118.4 45.2 130.4 106.2 2.1-.1 4.3-.2 6.4-.2C627.2 246 672 290.8 672 346s-44.8 100-100 100H96c-53 0-96-43-96-96 0-49.4 37.3-89.7 85.1-94.8z" fill="#90a4ae"/>
</svg>
